<svg xmlns="http://www.w3.org/2000/svg" data-name="Layer 1" viewBox="0 0 890 612"><path fill="#f1f1f1" d="M312 550v-1c0-1 7-25 26-38s44-11 44-11h1v2s-6 24-26 37a73 73 0 01-44 11zm27-37a70 70 0 00-24 35c5 0 25 1 41-10s23-31 25-36c-5 0-26-1-42 11z"/><path fill="#f1f1f1" d="M346 518c-10 21-32 32-32 32s-7-24 2-45 32-31 32-31 7 23-2 44z"/><path fill="#e5e5e5" d="M102 542c-10-32-11-68 6-97 8-13 18-24 31-31 15-8 32-11 49-11 36-1 72 8 108 3 17-2 33-6 47-15 12-8 22-18 29-31a57 57 0 003-40c-3-13-11-25-23-31-11-5-24-5-35-1-12 5-20 15-22 28-2 16 5 32 13 46 8 13 17 25 28 35 12 9 25 17 39 20 14 4 28 3 42-1a59 59 0 0032-28c7-14 10-30 10-46-1-19-4-37-8-56q-5-28-12-55l-6-27c0-2-3-2-3 0 9 36 17 72 23 109 3 17 4 35 1 52-3 14-10 29-22 38-22 19-55 16-78 2-13-7-24-18-33-29-9-12-18-26-22-41-2-8-2-16 0-24a31 31 0 0110-15c9-7 22-10 33-7 13 3 23 12 28 24a53 53 0 012 39c-5 13-14 25-26 33-13 9-28 15-44 18-35 5-70-2-105-3-16 0-33 1-48 7a82 82 0 00-35 24c-20 25-25 57-21 88a157 157 0 006 24c1 2 4 1 3-1z"/><path fill="#fff" d="M90 535h19v15H90zM432 204h339c64 0 116-37 116-101s-52-91-116-91H664c-128 0-232 64-232 192z"/><path fill="#e5e5e5" d="M771 207H429v-3c0-61 24-112 69-146 42-32 99-49 166-49h107c34 0 63 8 84 22 23 17 35 41 35 72 0 32-12 58-35 77-21 17-51 27-84 27zm-336-6h336c68 0 113-39 113-98 0-79-79-88-113-88H664c-110 0-227 49-229 186z"/><path fill="#fff" d="M587 72h40v10h-40zM752 72h14v10h-14zM780 72h14v10h-14zM641 72h96v10h-96zM537 134h40v10h-40zM701 134h14v10h-14zM730 134h14v10h-14zM591 134h96v10h-96zM702 94h40v10h-40zM756 94h40v10h-40zM810 94h14v10h-14zM565 94h14v10h-14zM593 94h96v10h-96zM619 114h40v10h-40zM565 114h40v10h-40zM810 114h14v10h-14zM782 114h14v10h-14zM672 114h96v10h-96z"/><path fill="#cbcbcb" d="M382 551H1a1 1 0 010-2h381a1 1 0 010 2zM231 612H114a1 1 0 010-2h117a1 1 0 110 2z"/><path fill="#ffb7b7" d="M120 337a14 14 0 00-4-20l7-48-23 10-3 44a14 14 0 0023 14zM190 594h-17l-7-64h24v64z"/><path fill="#2f2e41" d="M194 610h-53v-1a21 21 0 0121-20h32z"/><path fill="#ffb7b7" d="M249 556l-15 6-31-57 23-9 23 60z"/><path fill="#2f2e41" d="M259 569l-50 20v-1a21 21 0 0112-27l30-12zM142 300l-5 27 75 228 40-12-28-84-29-125-1-44-52 10z"/><path fill="#2f2e41" d="M158 582l14-92-2-18 24-53-3-127 53 8-20 163-28 96-5 21-33 2z"/><circle cx="166.5" cy="50" r="30.5" fill="#ffb8b8"/><path fill="#2f2e41" d="M197 18a38 38 0 00-22-17l-6 5 2-6a35 35 0 00-6 0l-6 8 2-8a37 37 0 00-25 16c-8 10-7 25 0 36l5-18a18 18 0 005 0l2-6 1 6 26-4-1-4 4 4 4-2c5 9 10 14 16 23 2-12 5-22-1-33z"/><path fill="#cbcbcb" d="M226 88s-58-5-84 16l-8 189 5 15s21 4 46-3 59 3 59 3l4-116z"/><path fill="#3f3d56" d="M140 297l18-184-3-16s-35 10-48 29l23 159v15zM222 285s-49-165-32-195c0 0 35-10 52 2l9 101s19 58 5 72l3 13-23 2c-4 0-14 5-14 5z"/><path fill="#3f3d56" d="M118 125l-11 1s-4 2-3 11-11 147-6 156l-3 12 24 7 1-12 11-38c1-8-13-137-13-137z"/><path fill="#ffb7b7" d="M237 282a14 14 0 0116-13l23-44 12 23-24 37a14 14 0 01-27-3z"/><path fill="#3f3d56" d="M228 97l13-5s21 11 23 23 43 84 43 84-15 65-28 69l-7 8-20-13 6-6s0-35 6-41c0 0-17-43-25-48s-11-71-11-71z"/></svg>