<?xml version="1.0" encoding="UTF-8" standalone="no"?>
<svg
   xmlns:dc="http://purl.org/dc/elements/1.1/"
   xmlns:cc="http://creativecommons.org/ns#"
   xmlns:rdf="http://www.w3.org/1999/02/22-rdf-syntax-ns#"
   xmlns:svg="http://www.w3.org/2000/svg"
   xmlns="http://www.w3.org/2000/svg"
   xmlns:xlink="http://www.w3.org/1999/xlink"
   xmlns:sodipodi="http://sodipodi.sourceforge.net/DTD/sodipodi-0.dtd"
   xmlns:inkscape="http://www.inkscape.org/namespaces/inkscape"
   inkscape:version="1.0 (4035a4fb49, 2020-05-01)"
   sodipodi:docname="styled-components.svg"
   id="svg18"
   version="1.1"
   viewBox="0 0 318 318">
  <metadata
     id="metadata22">
    <rdf:RDF>
      <cc:Work
         rdf:about="">
        <dc:format>image/svg+xml</dc:format>
        <dc:type
           rdf:resource="http://purl.org/dc/dcmitype/StillImage" />
      </cc:Work>
    </rdf:RDF>
  </metadata>
  <sodipodi:namedview
     inkscape:current-layer="g16"
     inkscape:window-maximized="1"
     inkscape:window-y="607"
     inkscape:window-x="-8"
     inkscape:cy="137.19858"
     inkscape:cx="130.59333"
     inkscape:zoom="1.8900653"
     showgrid="false"
     id="namedview20"
     inkscape:window-height="1017"
     inkscape:window-width="1920"
     inkscape:pageshadow="2"
     inkscape:pageopacity="0"
     guidetolerance="10"
     gridtolerance="10"
     objecttolerance="10"
     borderopacity="1"
     bordercolor="#666666"
     pagecolor="#ffffff" />
  <defs
     id="defs6">
    <path
       d="M0 0h318v318H0z"
       id="a" />
    <mask
       fill="#fff"
       y="0"
       x="0"
       height="318"
       width="318"
       id="b">
      <use
         id="use3"
         xlink:href="#a" />
    </mask>
  </defs>
  <g
     id="g16"
     fill-rule="evenodd"
     fill="none">
    <use
       height="100%"
       width="100%"
       y="0"
       x="0"
       id="use8"
       xlink:href="#a"
       mask="url(#b)"
       stroke-width="8"
       stroke="#4a4a4a" />
    <path
       id="path10"
       d="m 44.284,229.416 c -4.428,0 -7.344,2.376 -7.344,5.544 0,2.808 1.728,4.68 5.652,5.76 3.564,1.008 4.32,1.512 4.32,3.096 0,1.44 -1.332,2.304 -3.384,2.304 -1.944,0 -3.708,-0.756 -5.184,-1.872 l -2.304,2.592 c 1.764,1.584 4.32,2.7 7.596,2.7 4.356,0 8.028,-2.088 8.028,-6.048 0,-3.384 -2.196,-4.968 -6.084,-6.012 -3.24,-0.9 -3.996,-1.476 -3.996,-2.736 0,-1.152 1.044,-1.908 2.88,-1.908 1.692,0 3.204,0.54 4.788,1.548 l 1.8,-2.7 c -1.8,-1.404 -4.032,-2.268 -6.768,-2.268 z m 20.412,15.732 1.62,2.952 c -1.368,0.972 -3.096,1.44 -4.788,1.44 -3.744,-0.036 -5.724,-2.16 -5.724,-6.228 v -10.044 h -2.988 v -3.312 h 2.988 v -4.212 l 4.608,-0.54 v 4.752 h 4.428 l -0.468,3.312 h -3.96 v 9.936 c 0,1.872 0.612,2.628 2.016,2.628 0.72,0 1.44,-0.216 2.268,-0.684 z m 19.62,-15.192 -6.192,19.116 c -1.44,4.464 -4.248,7.344 -9.9,7.776 L 67.756,253.5 c 3.78,-0.576 5.004,-1.8 6.084,-4.5 h -1.584 l -6.048,-19.044 h 4.896 l 4.14,15.984 4.32,-15.984 z m 7.308,19.584 c 1.188,0 2.268,-0.288 3.06,-0.648 l -0.972,-3.24 c -0.324,0.108 -0.648,0.18 -1.08,0.18 -0.756,0 -1.08,-0.432 -1.08,-1.332 v -22.68 l -4.608,0.504 v 22.32 c 0,3.132 1.764,4.896 4.68,4.896 z m 21.744,-10.512 c 0,0.612 -0.072,1.368 -0.108,1.872 h -11.952 c 0.324,3.888 2.16,5.148 4.68,5.148 1.692,0 3.096,-0.54 4.752,-1.692 l 1.908,2.628 c -1.872,1.512 -4.176,2.556 -7.056,2.556 -5.904,0 -9.072,-3.924 -9.072,-9.936 0,-5.796 3.06,-10.188 8.46,-10.188 5.328,0 8.388,3.6 8.388,9.612 z m -4.572,-1.116 v -0.216 c 0,-3.132 -1.116,-5.004 -3.708,-5.004 -2.16,0 -3.528,1.44 -3.78,5.22 z m 20.124,-16.092 4.608,0.504 V 249 h -4.068 l -0.324,-2.412 c -1.152,1.728 -2.988,2.952 -5.436,2.952 -4.752,0 -7.236,-3.996 -7.236,-10.044 0,-5.868 2.952,-10.08 7.668,-10.08 2.016,0 3.6,0.864 4.788,2.052 z m -3.924,24.228 c 1.692,0 2.844,-0.828 3.924,-2.448 v -8.712 c -1.008,-1.224 -2.088,-2.016 -3.636,-2.016 -2.376,0 -3.96,2.016 -3.96,6.588 0,4.896 1.404,6.588 3.672,6.588 z M 44.44,265.416 c -5.472,0 -8.892,4.14 -8.892,10.224 0,6.084 3.42,9.9 8.928,9.9 2.448,0 4.428,-0.792 6.156,-2.196 l -2.052,-2.916 c -1.404,0.9 -2.412,1.368 -3.852,1.368 -2.592,0 -4.284,-1.62 -4.284,-6.228 0,-4.572 1.62,-6.516 4.284,-6.516 1.44,0 2.592,0.432 3.852,1.368 l 2.052,-2.772 c -1.8,-1.548 -3.708,-2.232 -6.192,-2.232 z m 17.316,0 c 5.616,0 8.928,3.816 8.928,10.044 0,6.012 -3.348,10.08 -8.964,10.08 -5.616,0 -8.964,-3.816 -8.964,-10.08 0,-5.976 3.348,-10.044 9,-10.044 z m 0,3.492 c -2.7,0 -4.14,2.052 -4.14,6.552 0,4.572 1.404,6.588 4.104,6.588 2.7,0 4.104,-2.052 4.104,-6.588 0,-4.536 -1.404,-6.552 -4.068,-6.552 z M 95.2,265.416 c -2.52,0 -4.284,1.224 -5.724,3.204 -0.72,-2.016 -2.376,-3.204 -4.608,-3.204 -2.412,0 -4.14,1.116 -5.508,3.024 L 79,265.956 H 75.004 V 285 h 4.608 v -13.248 c 1.044,-1.764 2.016,-2.88 3.636,-2.88 1.116,0 2.088,0.684 2.088,3.06 V 285 h 4.608 v -13.248 c 1.044,-1.764 2.016,-2.88 3.6,-2.88 1.152,0 2.088,0.684 2.088,3.06 V 285 h 4.608 v -13.788 c 0,-3.6 -2.016,-5.796 -5.04,-5.796 z m 20.268,0 c 4.968,0 7.056,3.924 7.056,10.008 0,5.832 -2.7,10.116 -7.524,10.116 -1.944,0 -3.6,-0.684 -4.788,-2.088 v 8.892 l -4.608,0.504 v -26.892 h 4.032 l 0.252,2.34 c 1.512,-1.98 3.528,-2.88 5.58,-2.88 z m -1.764,16.596 c 2.52,0 3.996,-1.944 3.996,-6.552 0,-4.824 -1.296,-6.588 -3.6,-6.588 -1.62,0 -2.988,1.116 -3.888,2.592 v 8.568 c 0.9,1.332 2.052,1.98 3.492,1.98 z m 21.132,-16.596 c 5.616,0 8.928,3.816 8.928,10.044 0,6.012 -3.348,10.08 -8.964,10.08 -5.616,0 -8.964,-3.816 -8.964,-10.08 0,-5.976 3.348,-10.044 9,-10.044 z m 0,3.492 c -2.7,0 -4.14,2.052 -4.14,6.552 0,4.572 1.404,6.588 4.104,6.588 2.7,0 4.104,-2.052 4.104,-6.588 0,-4.536 -1.404,-6.552 -4.068,-6.552 z m 23.4,-3.492 c -2.412,0 -4.32,1.116 -5.796,3.024 l -0.36,-2.484 h -3.996 V 285 h 4.608 v -13.248 c 1.116,-1.764 2.34,-2.88 3.996,-2.88 1.44,0 2.34,0.684 2.34,3.06 V 285 h 4.608 v -13.788 c 0,-3.636 -1.98,-5.796 -5.4,-5.796 z m 26.388,9.612 c 0,0.612 -0.072,1.368 -0.108,1.872 h -11.952 c 0.324,3.888 2.16,5.148 4.68,5.148 1.692,0 3.096,-0.54 4.752,-1.692 l 1.908,2.628 c -1.872,1.512 -4.176,2.556 -7.056,2.556 -5.904,0 -9.072,-3.924 -9.072,-9.936 0,-5.796 3.06,-10.188 8.46,-10.188 5.328,0 8.388,3.6 8.388,9.612 z m -4.572,-1.116 v -0.216 c 0,-3.132 -1.116,-5.004 -3.708,-5.004 -2.16,0 -3.528,1.44 -3.78,5.22 z m 18.864,-8.496 c -2.412,0 -4.32,1.116 -5.796,3.024 l -0.36,-2.484 h -3.996 V 285 h 4.608 v -13.248 c 1.116,-1.764 2.34,-2.88 3.996,-2.88 1.44,0 2.34,0.684 2.34,3.06 V 285 h 4.608 v -13.788 c 0,-3.636 -1.98,-5.796 -5.4,-5.796 z m 20.052,15.732 c -0.828,0.468 -1.548,0.684 -2.268,0.684 -1.404,0 -2.016,-0.756 -2.016,-2.628 v -9.936 h 3.96 l 0.468,-3.312 h -4.428 v -4.752 l -4.608,0.54 v 4.212 h -2.988 v 3.312 h 2.988 v 10.044 c 0,4.068 1.98,6.192 5.724,6.228 1.692,0 3.42,-0.468 4.788,-1.44 z m 10.224,-15.732 c -4.428,0 -7.344,2.376 -7.344,5.544 0,2.808 1.728,4.68 5.652,5.76 3.564,1.008 4.32,1.512 4.32,3.096 0,1.44 -1.332,2.304 -3.384,2.304 -1.944,0 -3.708,-0.756 -5.184,-1.872 l -2.304,2.592 c 1.764,1.584 4.32,2.7 7.596,2.7 4.356,0 8.028,-2.088 8.028,-6.048 0,-3.384 -2.196,-4.968 -6.084,-6.012 -3.24,-0.9 -3.996,-1.476 -3.996,-2.736 0,-1.152 1.044,-1.908 2.88,-1.908 1.692,0 3.204,0.54 4.788,1.548 l 1.8,-2.7 c -1.8,-1.404 -4.032,-2.268 -6.768,-2.268 z M 79.8,87.2 l -36.2,22.5 36.2,22.9 -3.7,4.6 -37.7,-23.6 v -7.9 L 76.5,82.1 m 189.3,22.7 v 7.8 l -37.7,23.6 -3.7,-4.9 36.1,-22.6 -36.1,-22.7 3.2,-4.9"
       fill="#4a4a4a" />
    <g
       style="font-size:100px;font-family:AppleColorEmoji, 'Apple Color Emoji';letter-spacing:0.5;fill:#000000"
       id="text14"
       aria-label="💅">
      <path
         id="path855"
         d="m 208.80469,52.740234 v 21.044922 q 0,1.708985 -0.53711,3.271485 -0.48828,1.513671 -1.41602,2.832031 -0.92773,1.269531 -2.24609,2.294922 -1.26953,0.976562 -2.83203,1.5625 v 4.101562 q 0,5.029297 -2.19727,9.375 -2.19726,4.345704 -6.15234,7.421874 1.46484,1.46485 2.73437,2.88086 1.31836,1.36719 2.2461,2.88086 0.97656,1.51367 1.51367,3.27148 0.58594,1.75782 0.58594,4.00391 0,1.41602 -0.29297,2.7832 1.5625,3.02735 1.5625,6.49414 0,3.61329 -1.46485,6.25 -1.46484,2.58789 -3.95507,5.07813 L 169.5957,165.04492 H 96.5 v -24.56055 l 66.69922,-66.699214 q 1.61133,1.806641 3.22265,3.515625 1.66016,1.708985 2.97852,3.564453 1.31836,1.855469 2.14844,4.003907 0.8789,2.099609 0.8789,4.736328 0,1.416015 -0.29296,2.783203 l 0.34179,0.78125 1.85547,-1.806641 h 6.39649 v -7.666015 q -1.61133,-0.585938 -2.92969,-1.5625 -1.26953,-0.976563 -2.19727,-2.246094 -0.8789,-1.31836 -1.41601,-2.832031 -0.48828,-1.5625 -0.48828,-3.271485 V 52.740234 Z m -14.01367,74.267576 q 0,-1.12304 -0.39063,-2.29492 l -11.91406,11.96289 -7.76367,-7.76367 -21.43555,21.43555 q -0.3418,0.34179 -0.78125,0.48828 -0.43945,0.14648 -0.87891,0.14648 -0.97656,0 -1.75781,-0.73242 -0.73242,-0.73242 -0.73242,-1.70898 0,-0.43946 0.14648,-0.92774 0.19532,-0.43945 0.48828,-0.73242 l 27.44141,-27.44141 q 1.46484,-1.46484 2.49023,-2.88086 1.0254,-1.41601 1.0254,-3.61328 0,-1.12304 -0.39063,-2.29492 -0.19531,0.29297 -1.02539,1.17188 -0.83008,0.8789 -2.00195,2.09961 -1.17188,1.17187 -2.58789,2.53906 -1.36719,1.36719 -2.63672,2.58789 -1.22071,1.2207 -2.2461,2.19726 -0.97656,0.97657 -1.36718,1.36719 -2.00196,-1.85547 -3.90625,-3.80859 -1.9043,-1.95313 -3.85743,-3.90625 l -28.46679,28.46679 q -0.29297,0.29297 -0.78125,0.48829 Q 131.02148,144 130.58203,144 q -1.02539,0 -1.75781,-0.73242 -0.73242,-0.73242 -0.73242,-1.75781 0,-0.43946 0.14648,-0.87891 0.14649,-0.43945 0.48828,-0.78125 l 34.47266,-34.47266 q 0.73242,-0.73242 1.36719,-1.41601 0.63476,-0.6836 1.12304,-1.41602 0.48828,-0.78125 0.73242,-1.66015 0.29297,-0.87891 0.29297,-2.001958 0,-1.074218 -0.39062,-2.246093 L 154.41016,108.59961 146.64648,100.83594 103.53125,144 v 14.01367 h 63.13477 l 24.60937,-24.56055 q 1.41602,-1.41601 2.44141,-2.83203 1.07422,-1.46484 1.07422,-3.61328 z m 6.98242,-67.236326 h -21.04492 v 14.013672 q 0,1.171875 0.43945,1.904297 0.48828,0.683594 1.2207,1.074219 0.73242,0.341797 1.66016,0.439453 0.92773,0.09766 1.90429,0.09766 h 1.80665 v 7.03125 h 7.03125 v -7.03125 h 1.85546 q 0.92774,0 1.85547,-0.09766 0.92774,-0.09766 1.66016,-0.439453 0.73242,-0.390625 1.17187,-1.074219 0.43946,-0.732422 0.43946,-1.904297 z M 179.41016,103.7168 q 0,-0.87891 -0.24414,-1.85547 h 1.5625 q 2.92968,0 5.46875,-1.07422 2.58789,-1.123048 4.49218,-3.027344 1.9043,-1.904297 2.97852,-4.44336 1.12305,-2.539062 1.12305,-5.46875 h -7.03125 v 3.515625 q 0,1.464844 -0.58594,2.734375 -0.53711,1.269531 -1.51367,2.246094 -0.92774,0.927734 -2.19727,1.464844 -1.26953,0.537109 -2.73437,0.537109 h -3.51563 l -14.01367,14.062497 5.27344,5.27344 8.74023,-8.78906 q 2.19727,-2.19727 2.19727,-5.17578 z m -30.27344,-5.371097 5.27344,5.273437 8.78906,-8.740234 q 1.02539,-1.02539 1.5625,-2.441406 0.58594,-1.416016 0.58594,-2.832031 0,-1.464844 -0.58594,-2.832032 -0.53711,-1.416015 -1.5625,-2.441406 z m 44.28711,19.335937 q 0,-3.125 -2.14844,-5.27344 l -14.0625,14.0625 5.27344,5.22461 8.78906,-8.74023 q 1.02539,-1.02539 1.5625,-2.44141 0.58594,-1.41601 0.58594,-2.83203 z" />
    </g>
    <path
       id="path847"
       d="m 103.63059,151.04878 v -6.82887 l 21.50903,-21.50659 21.50902,-21.50658 3.8429,3.82982 3.8429,3.82982 5.78884,-5.7979 c 3.18387,-3.18884 5.91715,-5.797892 6.07396,-5.797892 0.4971,0 0.30768,2.962972 -0.27922,4.367622 -0.37456,0.89644 -6.8538,7.66184 -19.26706,20.11799 -19.69284,19.76089 -19.47903,19.50781 -18.12033,21.44761 0.4233,0.60435 0.96032,0.83148 1.96594,0.83148 1.32201,0 2.02393,-0.64055 15.78115,-14.40125 l 14.39761,-14.40125 3.81315,3.80018 3.81315,3.80017 2.55095,-2.2637 c 1.40302,-1.24503 4.10821,-3.87452 6.01154,-5.84331 2.8433,-2.94108 3.47065,-3.43245 3.517,-2.75463 0.11037,1.61386 -0.13579,3.07341 -0.70599,4.18602 -0.31805,0.6206 -7.37283,7.9565 -15.67729,16.302 -10.06982,10.11958 -15.09902,15.42992 -15.09902,15.94307 0,1.3213 1.41132,2.74094 2.72487,2.74094 1.03933,0 2.43194,-1.2552 12.13256,-10.93537 l 10.95848,-10.93536 3.86082,3.84767 3.86081,3.84768 5.74851,-5.81937 c 3.16169,-3.20065 5.88527,-5.81937 6.05241,-5.81937 0.53989,0 0.32248,3.02614 -0.31848,4.43287 -0.3805,0.83511 -5.8136,6.56375 -13.98017,14.74066 l -13.35779,13.37471 h -31.47513 -31.47512 z"
       style="fill:#ffd35f;fill-opacity:1;stroke-width:0.236136;stroke-linecap:round;stroke-linejoin:round;paint-order:markers stroke fill" />
    <path
       id="path849"
       d="m 151.89111,100.82405 -2.41638,-2.438054 6.72383,-6.73162 c 3.6981,-3.702391 6.8935,-6.679067 7.10087,-6.614836 0.74615,0.231109 1.6853,2.726855 1.68587,4.480123 3.2e-4,0.983991 -0.23454,2.330815 -0.52192,2.992942 -0.28737,0.662126 -2.69001,3.351631 -5.3392,5.976678 l -4.81669,4.772817 z"
       style="fill:#d977b3;fill-opacity:1;stroke-width:0.236136;stroke-linecap:round;stroke-linejoin:round;paint-order:markers stroke fill" />
    <path
       id="path851"
       d="m 165.93474,114.86778 -2.43965,-2.45848 7.01187,-6.97777 7.01186,-6.977766 3.02209,-0.123941 c 2.6309,-0.107898 3.20035,-0.259916 4.39933,-1.174438 2.04388,-1.558965 2.86682,-3.454683 2.86682,-6.60401 v -2.633728 h 3.41917 3.41917 l -0.21779,1.838906 c -0.715,6.037043 -6.34843,11.255597 -12.79349,11.851307 l -2.61883,0.24206 0.12746,1.59153 c 0.18929,2.36356 -0.61279,3.57542 -5.95751,9.0011 l -4.81085,4.88372 z"
       style="fill:#d977b3;fill-opacity:1;stroke-width:0.236136;stroke-linecap:round;stroke-linejoin:round;paint-order:markers stroke fill" />
    <path
       id="path853"
       d="m 179.94785,128.88077 -2.41429,-2.43595 6.72382,-6.73162 c 3.69811,-3.70239 6.89196,-6.67558 7.09744,-6.60708 0.81382,0.27127 1.73291,2.51924 1.74648,4.27165 0.026,3.35523 -0.37312,3.91573 -8.12675,11.41294 l -2.61241,2.526 z"
       style="fill:#d977b3;fill-opacity:1;stroke-width:0.236136;stroke-linecap:round;stroke-linejoin:round;paint-order:markers stroke fill" />
  </g>
</svg>
