<svg xmlns="http://www.w3.org/2000/svg" data-name="Layer 1" viewBox="0 0 973.4614 587.02513">
  <defs/>
  <g fill="#e4e4e4" data-name="Group 100">
    <path d="M561.87742 471.61302a11.49 11.49 0 1011.49 11.49 11.49 11.49 0 00-11.49-11.49zm0 18.561a7.071 7.071 0 117.071-7.071v.00006a7.071 7.071 0 01-7.071 7.07091z" data-name="Path 1465"/>
    <path d="M517.68437 462.774h44.193v43.739a5.757 5.757 0 01-5.757 5.757h-32.679a5.757 5.757 0 01-5.757-5.757v-43.739z" data-name="Path 1467"/>
  </g>
  <path fill="#cacaca" d="M665.13336 513.27101H.89636a1.006 1.006 0 010-2h664.237a1.006 1.006 0 010 2z" data-name="Path 944"/>
  <path fill="#ffb6b6" d="M89.41 494.381l-4.108 20.313 76.393 25.514 6.064-29.98-78.349-15.847z"/>
  <path fill="#2f2e41" d="M97.09031 490.54156l-8.09119 40.00293-.00033.00162a26.01065 26.01065 0 01-30.64977 20.3355l-.82841-.1676 13.24784-65.49629z"/>
  <circle cx="175.97938" cy="162.713" r="51.871" fill="#feb8b8" data-name="Ellipse 276"/>
  <path fill="#2f2e41" d="M224.42741 117.96299a59.90714 59.90714 0 00-34.08105-26.052l-6.368 4.647v-6.034a55.143 55.143 0 00-10.3-.6l-5.494 4.971v-4.558a59.33506 59.33506 0 00-40.932 24.347c-11.931 17.2-13.945 41.129-2.21 58.467 3.221-9.9 7.131-19.189 10.353-29.088a29.29917 29.29917 0 007.633.037l3.919-9.145 1.095 8.758c12.148-1.058 30.166-3.382 41.682-5.511l-1.12-6.719 6.7 5.583c3.528-.812 5.623-1.549 5.45-2.112 8.565 13.808 19.047 22.627 27.611 36.435 3.25303-19.46998 6.99705-35.65901-3.93795-53.426z" data-name="Path 1461"/>
  <ellipse cx="192.85638" cy="464.78699" fill="#2f2e41" data-name="Ellipse 260" rx="133.56" ry="37.359"/>
  <path fill="#297b91" d="M287.5392 296.10104c-1.78369-10.731-3.62354-21.668-8.61084-31.335-3.27784-6.332-8.481-12.366-15.49512-13.618a14.98964 14.98964 0 01-4.03467-.934c-2.05517-.99-29.67334-16.756-34.063-19.502-3.769-2.35736-9.71875-6.72223-12.71875-6.72223-3.01806-.06634-14.59082 2.62708-59.76025-.90381a163.14109 163.14109 0 00-22.01025 10.82172c-.14551-.09589-46.88184 25.00134-48.6377 24.9353-3.3252-.14-6.416 1.989-8.32227 4.67005-1.90576 2.681-2.7998 6-3.73584 9.209 10.208 22.733 19.54786 45.495 29.75684 68.228a5.82135 5.82135 0 01.73828 2.8 6.83358 6.83358 0 01-1.27 2.8c-5.00635 8.042-4.84717 18.157-4.30029 27.609.54736 9.452 1.22412 19.436-3 27.908-1.14893 2.326-2.64307 4.455-3.73584 6.781-2.55908 5.268-3.48389 22.117-1.98926 27.777l187.2666 5.3648c-4.02637-11.06803 13.92236-145.88883 13.92236-145.88883z"/>
  <path fill="#fbbebe" d="M53.96338 341.95797a33.06266 33.06266 0 00-.112 8.154l2.684 38.546c.252 3.633.5 7.257.841 10.881.644 7.033 1.606 14.01 2.8 20.977a3.736 3.736 0 003.829 3.633c11.815 2.5 24.022 2.4 36.08 1.719 18.4-1.027 65.474-2.97 68.35-6.706s1.2-9.779-2.55-12.8-65.871-10.386-65.871-10.386c.607-4.81 2.438-9.34 4.175-13.907 3.12-8.1 6.034-16.466 6.09-25.143s-3.213-17.8-10.321-22.771c-5.847-4.081-13.375-4.838-20.5-4.67-5.184.149-14.141-1.093-18.876.934-3.74699 1.65003-5.919 7.87006-6.619 11.539z" data-name="Path 1421"/>
  <path fill="#2f2e41" d="M287.87137 429.09103c3.11-1.186 6.538-.757 9.872-.308 10.732 1.466 21.622 2.97 31.569 7.257 4.67 2 9.116 4.67 12.273 8.6 2.8 3.54 4.436 7.874 5.987 12.142l3.587 9.826a47.30032 47.30032 0 013.129 11.516c1.121 11.759-6.921 22.845-17.036 28.954s-22.023 8.284-33.624 10.563-23.247 4.8-34.8 7.472a140.08632 140.08632 0 01-16.373 3.222c-12.366 1.4-25.292-.663-37.042 3.428-4.67 1.635-9.256 4.063-14.1 5.193a87.74454 87.74454 0 01-9.751 1.485l-22.238 2.54a121.31294 121.31294 0 01-13.636 1.046c-9.713 0-19.268-2.3-28.7-4.6a7.25771 7.25771 0 01-2.8-1.13c-1.494-1.177-1.821-3.26-2.036-5.146q-1.429-12.525-2.5-25.077c-.224-2.718-.392-5.66 1.093-7.948 1.868-2.8 5.511-3.68 8.836-4.222a230.57994 230.57994 0 0142.665-2.961c5.426-5.426 14.374-5.454 21.482-8.406a63.89712 63.89712 0 007.575-4.119 99.00057 99.00057 0 0141.59-13.141 38.71437 38.71437 0 008.509-1.214c5.5-1.709 10.517-6.361 16.167-5.221.7-1.933 1.186-4.521 2.8-5.847.8-.682 1.793-1.139 2.531-1.868 1.56-1.578 1.7-4.063 1.466-6.267s-.757-4.464-.187-6.613a9.14077 9.14077 0 011.037-2.307c2.792-4.83203 7.02302-7.31604 12.655-6.849z" data-name="Path 1423"/>
  <path fill="#297b91" d="M69.61038 273.41399a9.66706 9.66706 0 00-2.073 3.316 156.78038 156.78038 0 00-13.169 53.816 5.38 5.38 0 01-.607 2.606 11.40276 11.40276 0 01-1.373 1.485 5.156 5.156 0 00.61662 7.26557q.12733.10739.26138.20642c1.541-2.9 5.23-3.848 8.509-4.1 15.7-1.242 31.036 6.062 46.783 5.511-1.111-3.839-2.709-7.528-3.615-11.413-4.007-17.251 5.987-36.033-.14-52.649-1.224-3.325-3.269-6.594-6.491-8.051a17.29051 17.29051 0 00-4.156-1.1c-3.979-.719-11.9-3.792-15.747-2.559-1.42.458-1.98 1.793-3.157 2.6-1.788 1.14203-4.15999 1.56201-5.642 3.06601z" data-name="Path 1430"/>
  <path fill="#fbbebe" d="M287.65127 330.41897c-4.735-2.027-13.692-.785-18.876-.934-7.125-.168-14.653.589-20.5 4.67-7.108 4.971-10.377 14.094-10.321 22.771s2.97 17.043 6.09 25.143c1.737 4.567 3.568 9.097 4.175 13.907 0 0-62.121 7.365-65.871 10.386s-5.426 9.064-2.55 12.8 92.615 7.487 104.43 4.987a3.736 3.736 0 003.829-3.633c1.194-6.967 2.156-13.944 2.8-20.977.341-3.624.589-7.248.841-10.881l2.684-38.546a33.06364 33.06364 0 00-.112-8.154c-.69998-3.66894-2.87199-9.88897-6.619-11.539z" data-name="Path 1421"/>
  <path fill="#297b91" d="M272.98127 270.34798c-1.177-.807-1.737-2.142-3.157-2.6-3.847-1.233-11.768 1.84-15.747 2.559a17.29056 17.29056 0 00-4.156 1.1c-3.222 1.457-5.267 4.726-6.491 8.051-6.127 16.616 3.867 35.398-.14 52.649-.906 3.885-2.504 7.574-3.615 11.413 15.747.551 31.083-6.753 46.783-5.511 3.279.252 6.968 1.2 8.509 4.1q.134-.099.26138-.20642a5.156 5.156 0 00.61663-7.26557 11.40137 11.40137 0 01-1.373-1.485 5.37993 5.37993 0 01-.607-2.606 156.78014 156.78014 0 00-13.169-53.816 9.66706 9.66706 0 00-2.073-3.316c-1.482-1.504-3.854-1.92398-5.64201-3.06601z" data-name="Path 1430"/>
  <path fill="#ffb6b6" d="M299.243 523.378l-2.73 20.543-80.538-.755 4.03-30.32 79.238 10.532z"/>
  <path fill="#2f2e41" d="M319.85314 520.78495l-8.804 66.24017-.83783-.11132a26.01064 26.01064 0 01-22.35645-29.20839l.00022-.00163 5.3773-40.45722z"/>
  <path fill="#2f2e41" d="M109.76939 439.48697c0 .934-1.466 0-1.6-1-1.027-7.556-7.024-13.786-14.01-16.812s-14.944-3.185-22.509-2.466c-11.441 1.083-24.284 5.464-28.468 16.158-.99 2.5-10.264 24.76-9.359 29.766 2.438 13.356 11.572 24.779 22.64 32.69s24 12.637 36.9 16.9a639.94948 639.94948 0 00104.607 24.984c5.753.869 11.563 1.672 17.073 3.521 4.931 1.653 9.545 4.128 14.365 6.071 11.208 4.5 23.266 6.108 35.211 7.687 2.036.262 4.371.448 5.875-.934 1.943-1.8 1.3-4.941.747-7.528a40.488 40.488 0 014.773-28.729c2-3.362 4.6-6.809 4.222-10.7-.448-4.539-4.969-7.752-9.471-8.481s-9.078.346-13.6.934a7.285 7.285 0 01-4.623-.458 9.23483 9.23483 0 01-1.812-1.606 20.482 20.482 0 00-23.854-3.334c-1.672.934-4.2-1.149-5.94-1.933l-19.642-8.892c-22.565-10.208-45.242-20.464-69.115-26.927a14.51449 14.51449 0 01-5.324-2.214c-1.186-.934-2.036-2.2-3.129-3.241-2.382-2.251-5.7-3.148-8.555-4.745s-6.05601-5.50799-5.402-8.711z" data-name="Path 1427"/>
  <circle cx="160.61683" cy="411.98984" r="14" fill="#fbbebe"/>
  <circle cx="191.61683" cy="411.98984" r="14" fill="#fbbebe"/>
  <path fill="#3f3d56" d="M278.03539 443.53697H85.69652a8.4798 8.4798 0 01-8.47021-8.46972V318.38072a8.4798 8.4798 0 018.47021-8.46972h192.33887a8.4798 8.4798 0 018.47021 8.46972v116.68653a8.4798 8.4798 0 01-8.47021 8.46972z"/>
  <circle cx="181.39939" cy="376.72401" r="5.604" fill="#fff" data-name="Ellipse 263"/>
  <path fill="#3f3d56" d="M868.02943 210.45223H618.13661a5.00573 5.00573 0 01-5-5v-47.10009h2v47.10009a3.00328 3.00328 0 003 3h249.89282a3.00328 3.00328 0 003-3v-47.42919h2v47.42919a5.00573 5.00573 0 01-5 5z"/>
  <path fill="#3f3d56" d="M371.39686 157.35214h587.21997v2H371.39686z"/>
  <circle cx="371.4394" cy="158.196" r="17.202" fill="#297b91" data-name="Ellipse 264"/>
  <circle cx="546.24439" cy="158.196" r="17.202" fill="#297b91" data-name="Ellipse 266"/>
  <circle cx="664.87641" cy="208.75701" r="17.202" fill="#3f3d56" data-name="Ellipse 268"/>
  <circle cx="755.06336" cy="208.75701" r="17.202" fill="#ccc" data-name="Ellipse 269"/>
  <circle cx="711.36035" cy="158.196" r="17.202" fill="#297b91" data-name="Ellipse 270"/>
  <circle cx="956.2594" cy="158.196" r="17.202" fill="#297b91" data-name="Ellipse 271"/>
  <circle cx="872.02936" cy="158.196" r="17.202" fill="#297b91" data-name="Ellipse 272"/>
  <path fill="#3f3d56" d="M648.5394 0h31.90646v21.98984H648.5394z" data-name="Rectangle 207"/>
  <path fill="#297b91" d="M355.61211 0h31.90646v21.98984h-31.90646z" data-name="Rectangle 208"/>
  <path fill="#ccc" d="M463.68483 0h31.90646v21.98984h-31.90646z" data-name="Rectangle 209"/>
  <path fill="#3f3d56" d="M424.78212 159.35214a1.00005 1.00005 0 01-1-1v-49.36231a5.00573 5.00573 0 015-5h48.6748a1 1 0 010 2h-48.6748a3.00328 3.00328 0 00-3 3v49.36231a1.00006 1.00006 0 01-1 1z"/>
  <circle cx="479.74439" cy="104.61599" r="17.202" fill="#e6e6e6" data-name="Ellipse 265"/>
  <path fill="#3f3d56" d="M809.78212 158.35214h-2v-49.36231a5.00573 5.00573 0 015-5h48.6748v2h-48.6748a3.00328 3.00328 0 00-3 3z"/>
  <circle cx="863.74439" cy="104.61599" r="17.202" fill="#e6e6e6" data-name="Ellipse 265"/>
</svg>